<svg xmlns="http://www.w3.org/2000/svg" width="19.689" height="17.501" viewBox="0 0 19.689 17.501">
  <path id="Icon_awesome-trophy" data-name="Icon awesome-trophy" d="M18.868,2.188H15.313V.82a.818.818,0,0,0-.82-.82H5.2a.818.818,0,0,0-.82.82V2.188H.82a.818.818,0,0,0-.82.82V4.922A4.461,4.461,0,0,0,2.116,8.364,8.008,8.008,0,0,0,5.876,9.79,7.561,7.561,0,0,0,8.2,12.305v2.461H6.563a1.973,1.973,0,0,0-2.188,1.914v.41a.411.411,0,0,0,.41.41H14.9a.411.411,0,0,0,.41-.41v-.41a1.973,1.973,0,0,0-2.188-1.914H11.485V12.305A7.561,7.561,0,0,0,13.813,9.79a7.98,7.98,0,0,0,3.76-1.425,4.47,4.47,0,0,0,2.116-3.442V3.008A.818.818,0,0,0,18.868,2.188ZM3.394,6.59A2.514,2.514,0,0,1,2.188,4.922V4.375H4.382A12.277,12.277,0,0,0,4.82,7.322,5.508,5.508,0,0,1,3.394,6.59ZM17.5,4.922A2.626,2.626,0,0,1,16.294,6.59a5.53,5.53,0,0,1-1.429.731A12.277,12.277,0,0,0,15.3,4.375h2.2Z" fill="#fff"/>
</svg>
