<svg xmlns="http://www.w3.org/2000/svg" width="16.96" height="17.961" viewBox="0 0 16.96 17.961">
  <g id="Group_173229" data-name="Group 173229" transform="translate(-13.609 -4.609)">
    <path id="Subtraction_3" data-name="Subtraction 3" d="M-1827.4-1314.429h-1.991v-2.87c0-1.075.6-2.595,3.432-3.731a14.775,14.775,0,0,1,5.048-1.009,14.775,14.775,0,0,1,5.048,1.009c2.836,1.137,3.432,2.656,3.432,3.731v2.869h-1.969v-2.2h-.031v-.666c0-.627-.813-1.328-2.175-1.875a12.794,12.794,0,0,0-4.3-.866,12.794,12.794,0,0,0-4.3.866c-1.362.546-2.175,1.247-2.175,1.875v.666h-.009v2.2Zm6.489-8.481a4.746,4.746,0,0,1-4.74-4.74,4.746,4.746,0,0,1,4.74-4.74,4.746,4.746,0,0,1,4.74,4.74A4.746,4.746,0,0,1-1820.911-1322.91Zm0-7.48a2.743,2.743,0,0,0-2.74,2.74,2.743,2.743,0,0,0,2.74,2.74,2.743,2.743,0,0,0,2.74-2.74A2.743,2.743,0,0,0-1820.911-1330.39Z" transform="translate(1843 1337)" fill="#fff"/>
  </g>
</svg>
