<svg xmlns="http://www.w3.org/2000/svg" width="13.221" height="12.5" viewBox="0 0 13.221 12.5">
  <path id="Icon_ionic-md-arrow-round-back" data-name="Icon ionic-md-arrow-round-back" d="M14.119,7.656H6.383l3-2.87a1.2,1.2,0,0,0,0-1.634,1.069,1.069,0,0,0-1.562,0L2.825,8a1.1,1.1,0,0,0-.325.81v.014a1.1,1.1,0,0,0,.325.81l4.992,4.844a1.069,1.069,0,0,0,1.562,0,1.2,1.2,0,0,0,0-1.634l-3-2.87h7.736a1.132,1.132,0,0,0,1.106-1.157A1.12,1.12,0,0,0,14.119,7.656Z" transform="translate(-2.25 -2.563)" fill="#fff" stroke="#141414" stroke-width="0.5"/>
</svg>
